<svg width="478" height="84" viewBox="0 0 478 84" fill="none" xmlns="http://www.w3.org/2000/svg">
<g clip-path="url(#clip0_131_13)">
<path d="M44.5 0C32.4238 0 30.9053 0.0525 26.1604 0.252C21.4156 0.462 18.1838 1.1655 15.3525 2.205C12.3813 3.25671 9.69066 4.91084 7.47044 7.05075C5.20315 9.14624 3.45056 11.6857 2.33625 14.49C1.23487 17.157 0.483938 20.2125 0.267 24.675C0.055625 29.1637 0 30.5918 0 42.0053C0 53.4083 0.055625 54.8363 0.267 59.3145C0.4895 63.7875 1.23487 66.8377 2.33625 69.51C3.47656 72.2715 4.99513 74.613 7.47044 76.9492C9.94019 79.2855 12.4211 80.724 15.3469 81.795C18.1838 82.8345 21.4101 83.5432 26.1493 83.748C30.8997 83.9475 32.4127 84 44.5 84C56.5873 84 58.0948 83.9475 62.8451 83.748C67.5788 83.538 70.8218 82.8345 73.6531 81.795C76.6223 80.7426 79.3109 79.0885 81.5296 76.9492C84.0049 74.613 85.5234 72.2715 86.6637 69.51C87.7596 66.8377 88.5105 63.7875 88.733 59.3145C88.9444 54.8363 89 53.4083 89 42C89 30.5917 88.9444 29.1638 88.733 24.6803C88.5105 20.2125 87.7596 17.157 86.6637 14.49C85.5494 11.6857 83.7968 9.14624 81.5296 7.05075C79.3093 4.91084 76.6187 3.25671 73.6475 2.205C70.8106 1.1655 67.5732 0.45675 62.8396 0.252C58.0892 0.0525 56.5818 0 44.4889 0H44.5ZM40.5117 7.5705H44.5056C56.3871 7.5705 57.7944 7.60725 62.4836 7.812C66.8223 7.99575 69.1808 8.6835 70.7494 9.25575C72.8242 10.017 74.3094 10.9305 75.8669 12.4005C77.4244 13.8705 78.3868 15.267 79.1933 17.2305C79.8052 18.7058 80.5283 20.9318 80.723 25.0268C80.9399 29.4525 80.9844 30.7808 80.9844 41.9895C80.9844 53.1983 80.9399 54.5317 80.723 58.9575C80.5283 63.0525 79.7996 65.2733 79.1933 66.7538C78.4748 68.575 77.3368 70.2229 75.8614 71.5785C74.3039 73.0485 72.8243 73.9568 70.7439 74.718C69.1864 75.2955 66.8279 75.978 62.4836 76.167C57.7944 76.3665 56.3871 76.4138 44.5056 76.4138C32.6241 76.4138 31.2112 76.3665 26.522 76.167C22.1833 75.978 19.8303 75.2955 18.2617 74.718C16.3306 74.0421 14.5826 72.9698 13.1442 71.5785C11.6661 70.2219 10.5261 68.5721 9.80669 66.7485C9.20038 65.2732 8.47169 63.0473 8.277 58.9523C8.06563 54.5265 8.02113 53.1982 8.02113 41.979C8.02113 30.7597 8.06563 29.442 8.277 25.0162C8.47725 20.9212 9.20038 18.6953 9.81225 17.2148C10.6188 15.2565 11.5867 13.8547 13.1442 12.3847C14.7017 10.9147 16.1813 10.0065 18.2617 9.24525C19.8303 8.66775 22.1833 7.98525 26.522 7.79625C30.6271 7.61775 32.218 7.56525 40.5117 7.56V7.5705ZM68.2574 14.5425C67.5562 14.5425 66.8618 14.6729 66.2139 14.9261C65.566 15.1794 64.9774 15.5507 64.4815 16.0187C63.9856 16.4867 63.5923 17.0423 63.3239 17.6538C63.0556 18.2653 62.9174 18.9206 62.9174 19.5825C62.9174 20.2444 63.0556 20.8997 63.3239 21.5112C63.5923 22.1227 63.9856 22.6783 64.4815 23.1463C64.9774 23.6143 65.566 23.9856 66.2139 24.2389C66.8618 24.4921 67.5562 24.6225 68.2574 24.6225C69.6737 24.6225 71.0319 24.0915 72.0334 23.1463C73.0348 22.2011 73.5974 20.9192 73.5974 19.5825C73.5974 18.2458 73.0348 16.9639 72.0334 16.0187C71.0319 15.0735 69.6737 14.5425 68.2574 14.5425ZM44.5056 20.433C41.4744 20.3884 38.4641 20.9133 35.6499 21.9772C32.8358 23.0412 30.274 24.6229 28.1137 26.6302C25.9534 28.6376 24.2378 31.0305 23.0668 33.6696C21.8958 36.3088 21.2927 39.1414 21.2927 42.0026C21.2927 44.8639 21.8958 47.6965 23.0668 50.3356C24.2378 52.9748 25.9534 55.3677 28.1137 57.375C30.274 59.3824 32.8358 60.9641 35.6499 62.028C38.4641 63.0919 41.4744 63.6169 44.5056 63.5723C50.5049 63.4839 56.2269 61.1725 60.4364 57.1371C64.6459 53.1016 67.0053 47.6657 67.0053 42.0026C67.0053 36.3396 64.6459 30.9037 60.4364 26.8682C56.2269 22.8327 50.5049 20.5213 44.5056 20.433ZM44.5056 27.9983C46.4537 27.9983 48.3829 28.3604 50.1827 29.0641C51.9826 29.7677 53.6181 30.7991 54.9956 32.0993C56.3732 33.3995 57.466 34.943 58.2115 36.6418C58.957 38.3405 59.3408 40.1613 59.3408 42C59.3408 43.8387 58.957 45.6595 58.2115 47.3582C57.466 49.057 56.3732 50.6005 54.9956 51.9007C53.6181 53.2009 51.9826 54.2323 50.1827 54.9359C48.3829 55.6396 46.4537 56.0017 44.5056 56.0017C40.571 56.0017 36.7976 54.5266 34.0155 51.9007C31.2334 49.2749 29.6704 45.7135 29.6704 42C29.6704 38.2865 31.2334 34.7251 34.0155 32.0993C36.7976 29.4734 40.571 27.9983 44.5056 27.9983Z" fill="black"/>
</g>
<path d="M157.957 84C191.544 84 209.916 57.8319 209.916 35.1786C209.924 34.4428 209.913 33.7071 209.883 32.9713C213.459 30.5352 216.546 27.5209 219 24.069C215.658 25.4513 212.117 26.3642 208.492 26.7784C212.312 24.6324 215.172 21.2551 216.541 17.2746C212.955 19.2765 209.028 20.6797 204.932 21.4224C202.18 18.6661 198.538 16.8401 194.57 16.2273C190.602 15.6145 186.53 16.249 182.985 18.0327C179.439 19.8164 176.618 22.6496 174.959 26.0936C173.299 29.5375 172.893 33.3999 173.805 37.0825C166.544 36.7418 159.44 34.9689 152.955 31.879C146.471 28.7891 140.749 24.4513 136.163 19.1471C133.836 22.9295 133.126 27.4029 134.177 31.6594C135.229 35.916 137.964 39.6369 141.826 42.0672C138.93 41.9792 136.098 41.2479 133.56 39.9331V40.1685C133.567 44.13 135.027 47.9678 137.695 51.0343C140.362 54.1007 144.073 56.2079 148.201 57.0002C146.633 57.4064 145.014 57.6087 143.389 57.6017C142.243 57.6129 141.098 57.513 139.974 57.3036C141.138 60.7154 143.41 63.6987 146.47 65.8347C149.529 67.9707 153.224 69.1522 157.034 69.2134C150.56 73.9887 142.567 76.5804 134.339 76.5727C132.889 76.583 131.439 76.5043 130 76.3373C138.352 81.3454 148.052 84.004 157.957 84Z" fill="black"/>
<path d="M303.786 25H304.282C308.854 25.0157 332.024 25.1732 338.271 26.7586C340.159 27.2425 341.88 28.1856 343.261 29.4937C344.643 30.8018 345.636 32.4291 346.142 34.213C346.704 36.2078 347.099 38.8484 347.366 41.5729L347.421 42.1189L347.544 43.4838L347.588 44.0297C347.95 48.8278 347.994 53.3215 348 54.3031V54.6969C347.994 55.7153 347.944 60.5134 347.544 65.511L347.499 66.0622L347.449 66.6082C347.171 69.6109 346.759 72.5927 346.142 74.787C345.636 76.5709 344.643 78.1982 343.261 79.5063C341.88 80.8144 340.159 81.7575 338.271 82.2414C331.818 83.8793 307.291 83.9948 303.892 84H303.102C301.383 84 294.274 83.9685 286.82 83.727L285.874 83.6955L285.39 83.6745L284.439 83.6378L283.488 83.601C277.313 83.3438 271.433 82.9291 268.724 82.2361C266.836 81.7528 265.116 80.8104 263.734 79.5033C262.353 78.1961 261.359 76.5699 260.852 74.787C260.235 72.5979 259.823 69.6109 259.545 66.6082L259.501 66.0569L259.456 65.511C259.18 61.954 259.028 58.3893 259 54.8228V54.1772C259.011 53.0485 259.056 49.1481 259.356 44.8434L259.395 44.3027L259.412 44.0297L259.456 43.4838L259.579 42.1189L259.634 41.5729C259.901 38.8484 260.296 36.2026 260.858 34.213C261.364 32.4291 262.357 30.8018 263.739 29.4937C265.12 28.1856 266.841 27.2425 268.729 26.7586C271.439 26.0762 277.318 25.6562 283.493 25.3937L284.439 25.357L285.396 25.3255L285.874 25.3097L286.825 25.273C292.12 25.1124 297.416 25.0231 302.713 25.0052L303.786 25ZM294.602 41.8511V67.1436L317.727 54.5026L294.602 41.8511Z" fill="black"/>
<path d="M478 42.2572C478 18.9186 458.078 0 433.506 0C408.922 0.00524934 389 18.9186 389 42.2625C389 63.3491 405.274 80.8294 426.542 84V54.4724H415.252V42.2625H426.553V32.9449C426.553 22.357 433.2 16.5092 443.361 16.5092C448.233 16.5092 453.322 17.3333 453.322 17.3333V27.727H447.71C442.188 27.727 440.463 30.9869 440.463 34.3307V42.2572H452.799L450.831 54.4672H440.458V83.9947C461.726 80.8241 478 63.3438 478 42.2572Z" fill="black"/>
<defs>
<clipPath id="clip0_131_13">
<rect width="89" height="84" fill="white"/>
</clipPath>
</defs>
</svg>
