<svg width="39" height="32" viewBox="0 0 39 32" fill="none" xmlns="http://www.w3.org/2000/svg">
<path d="M1.5197 0.732612C1.32115 0.729047 1.12402 0.775622 0.93977 0.86963C0.755519 0.963639 0.587821 1.10321 0.446421 1.28022C0.305022 1.45723 0.192741 1.66817 0.116103 1.90076C0.0394655 2.13335 0 2.38296 0 2.63509C0 2.88721 0.0394655 3.13682 0.116103 3.36941C0.192741 3.60201 0.305022 3.81294 0.446421 3.98995C0.587821 4.16697 0.755519 4.30653 0.93977 4.40054C1.12402 4.49455 1.32115 4.54112 1.5197 4.53756H37.4803C37.6789 4.54112 37.876 4.49455 38.0602 4.40054C38.2445 4.30653 38.4122 4.16697 38.5536 3.98995C38.695 3.81294 38.8073 3.60201 38.8839 3.36941C38.9605 3.13682 39 2.88721 39 2.63509C39 2.38296 38.9605 2.13335 38.8839 1.90076C38.8073 1.66817 38.695 1.45723 38.5536 1.28022C38.4122 1.10321 38.2445 0.963639 38.0602 0.86963C37.876 0.775622 37.6789 0.729047 37.4803 0.732612H1.5197ZM1.5197 14.0499C1.32115 14.0464 1.12402 14.0929 0.93977 14.1869C0.755519 14.281 0.587821 14.4205 0.446421 14.5975C0.305022 14.7746 0.192741 14.9855 0.116103 15.2181C0.0394655 15.4507 0 15.7003 0 15.9524C0 16.2045 0.0394655 16.4541 0.116103 16.6867C0.192741 16.9193 0.305022 17.1303 0.446421 17.3073C0.587821 17.4843 0.755519 17.6238 0.93977 17.7179C1.12402 17.8119 1.32115 17.8584 1.5197 17.8549H37.4803C37.6789 17.8584 37.876 17.8119 38.0602 17.7179C38.2445 17.6238 38.4122 17.4843 38.5536 17.3073C38.695 17.1303 38.8073 16.9193 38.8839 16.6867C38.9605 16.4541 39 16.2045 39 15.9524C39 15.7003 38.9605 15.4507 38.8839 15.2181C38.8073 14.9855 38.695 14.7746 38.5536 14.5975C38.4122 14.4205 38.2445 14.281 38.0602 14.1869C37.876 14.0929 37.6789 14.0464 37.4803 14.0499H1.5197ZM1.5197 27.3672C1.32115 27.3637 1.12402 27.4103 0.93977 27.5043C0.755519 27.5983 0.587821 27.7378 0.446421 27.9149C0.305022 28.0919 0.192741 28.3028 0.116103 28.5354C0.0394655 28.768 0 29.0176 0 29.2697C0 29.5218 0.0394655 29.7715 0.116103 30.004C0.192741 30.2366 0.305022 30.4476 0.446421 30.6246C0.587821 30.8016 0.755519 30.9412 0.93977 31.0352C1.12402 31.1292 1.32115 31.1758 1.5197 31.1722H37.4803C37.6789 31.1758 37.876 31.1292 38.0602 31.0352C38.2445 30.9412 38.4122 30.8016 38.5536 30.6246C38.695 30.4476 38.8073 30.2366 38.8839 30.004C38.9605 29.7715 39 29.5218 39 29.2697C39 29.0176 38.9605 28.768 38.8839 28.5354C38.8073 28.3028 38.695 28.0919 38.5536 27.9149C38.4122 27.7378 38.2445 27.5983 38.0602 27.5043C37.876 27.4103 37.6789 27.3637 37.4803 27.3672H1.5197Z" fill="white"/>
</svg>
